<?xml version="1.0" standalone="no"?>
<!DOCTYPE svg PUBLIC "-//W3C//DTD SVG 20010904//EN"
 "http://www.w3.org/TR/2001/REC-SVG-20010904/DTD/svg10.dtd">
<svg version="1.0" xmlns="http://www.w3.org/2000/svg"
 width="2816.000000pt" height="1536.000000pt" viewBox="0 0 2816.000000 1536.000000"
 preserveAspectRatio="xMidYMid meet">

<g transform="translate(0.000000,1536.000000) scale(0.100000,-0.100000)"
fill="#000000" stroke="none">
<path d="M16020 13363 c-96 -64 -216 -170 -291 -258 -40 -47 -74 -85 -77 -85
-2 0 -29 23 -59 50 -150 137 -378 220 -606 220 -125 0 -226 -17 -472 -78 -347
-87 -542 -76 -711 42 -35 25 -64 43 -64 40 0 -20 67 -127 103 -163 74 -77 211
-151 279 -151 11 0 16 -4 13 -10 -3 -5 -13 -10 -21 -10 -8 0 -104 -34 -212
-76 -108 -42 -237 -87 -287 -99 -228 -58 -434 -36 -560 61 -19 14 -35 24 -35
20 0 -3 12 -31 27 -63 34 -73 138 -177 221 -221 68 -36 194 -72 254 -72 24 0
37 -4 33 -10 -3 -6 -43 -34 -88 -64 -104 -68 -133 -92 -254 -203 -205 -190
-314 -263 -431 -289 -162 -36 -321 25 -403 155 -29 44 -29 45 -29 15 0 -50 28
-145 67 -224 76 -157 222 -255 423 -286 58 -8 126 -14 153 -11 60 5 52 0 -113
-77 -257 -121 -405 -224 -512 -355 -156 -194 -229 -421 -209 -654 9 -107 49
-297 62 -297 3 0 9 21 13 48 10 76 60 207 106 277 83 127 225 237 365 283 61
20 205 43 205 33 0 -3 -16 -17 -35 -30 -130 -88 -282 -294 -349 -473 -103
-273 -60 -579 114 -812 50 -67 105 -119 96 -91 -30 99 -35 292 -11 389 17 65
107 257 129 276 12 9 14 -5 15 -82 1 -75 10 -127 47 -273 57 -228 66 -325 34
-409 -40 -106 -121 -166 -257 -190 l-78 -14 67 -31 c162 -75 351 -55 514 54
63 43 64 43 58 17 -27 -117 -98 -273 -178 -394 -31 -48 -56 -90 -56 -95 0 -6
36 -36 81 -67 l81 -57 24 28 c40 46 111 155 158 244 46 87 64 137 162 444 45
143 76 218 152 365 149 292 174 388 197 760 17 261 33 400 71 598 93 495 305
894 652 1223 219 208 471 344 793 429 59 15 112 31 117 34 5 3 14 -18 20 -48
12 -59 63 -196 73 -196 3 0 9 36 12 80 4 44 14 108 22 142 18 66 67 182 81
191 5 3 9 -43 9 -101 0 -81 5 -119 19 -154 10 -27 23 -48 27 -48 5 0 9 24 9
53 0 72 24 215 50 291 23 69 90 188 110 194 9 3 10 -31 5 -154 -4 -88 -11
-177 -17 -199 -16 -64 -68 -160 -120 -226 -27 -33 -47 -63 -45 -65 3 -3 35 7
72 22 44 18 87 45 125 80 32 30 61 54 65 54 13 0 159 -128 231 -202 76 -78
287 -322 346 -400 26 -34 40 -67 53 -124 21 -93 63 -175 189 -368 52 -80 140
-219 196 -310 55 -91 134 -214 175 -272 41 -59 75 -116 75 -126 0 -11 -11 -38
-24 -61 -14 -23 -39 -85 -57 -137 -17 -52 -36 -103 -41 -113 -13 -24 -68 -47
-114 -47 -32 0 -46 10 -140 105 -104 105 -182 165 -216 165 -26 0 -22 -18 15
-64 19 -23 58 -76 88 -120 30 -43 60 -87 68 -98 14 -19 13 -19 -25 -12 -76 13
-97 38 -139 159 -24 68 -37 88 -85 135 -31 30 -94 77 -140 104 -89 53 -226
174 -212 188 15 15 116 -11 196 -52 44 -22 82 -38 84 -35 8 7 -95 109 -168
165 l-71 55 6 75 7 74 -45 -55 c-171 -210 -472 -210 -677 0 -76 78 -121 158
-151 267 -19 68 -21 96 -16 209 5 127 17 181 71 320 10 24 -257 -248 -314
-321 -189 -241 -261 -592 -190 -931 40 -193 143 -440 245 -588 66 -96 193
-251 251 -305 l47 -45 -23 40 c-13 22 -39 67 -58 100 -47 82 -164 316 -197
394 -111 266 -150 451 -149 716 1 209 22 322 84 451 23 47 43 84 46 82 2 -3
-3 -36 -11 -74 -18 -86 -19 -245 -1 -345 31 -173 119 -396 330 -836 162 -341
230 -525 277 -753 10 -52 23 -108 29 -123 8 -25 4 -23 -48 23 -121 108 -255
182 -434 241 -231 75 -466 109 -738 108 -133 0 -230 -11 -200 -21 8 -3 87 -16
174 -28 255 -36 528 -110 704 -191 198 -91 387 -251 468 -394 68 -122 86 -186
91 -320 3 -66 1 -138 -4 -160 l-9 -40 -72 -7 c-184 -19 -344 -134 -433 -313
-33 -66 -41 -95 -46 -157 -3 -42 -2 -89 2 -104 7 -28 8 -26 24 26 44 139 143
266 250 319 68 34 130 46 326 67 319 32 486 66 808 165 147 45 217 50 276 20
51 -27 133 -118 167 -187 25 -51 26 -61 21 -142 -3 -48 -13 -118 -22 -157 -23
-106 -29 -299 -15 -488 16 -228 15 -315 -4 -361 -9 -21 -53 -74 -98 -120 -46
-45 -116 -125 -157 -179 -40 -53 -77 -100 -82 -103 -11 -7 -73 123 -90 187
-16 60 -8 79 33 79 45 0 96 34 113 74 14 33 12 66 -10 171 -6 26 1 42 44 105
65 94 88 157 102 277 33 278 -26 463 -163 509 -89 29 -150 0 -428 -205 -306
-227 -374 -267 -655 -389 -88 -39 -202 -91 -254 -116 -175 -85 -222 -67 -461
174 -182 184 -262 252 -391 328 -91 55 -318 157 -327 147 -3 -3 -1 -9 4 -13 5
-5 42 -34 82 -66 143 -116 264 -261 408 -493 47 -76 93 -146 102 -157 37 -41
149 -103 465 -256 l109 -53 96 98 c123 124 177 162 389 273 209 111 338 196
520 345 228 186 267 213 297 201 21 -8 36 -90 36 -199 0 -152 -28 -243 -113
-374 -45 -69 -52 -111 -33 -193 l8 -38 -50 0 c-27 0 -79 -9 -115 -20 -84 -26
-127 -72 -157 -167 -42 -131 -37 -368 9 -508 42 -125 105 -134 293 -39 207
103 277 169 421 400 14 23 58 68 99 101 47 38 83 76 100 108 34 64 51 159 42
244 -23 232 -19 569 10 779 9 62 16 132 16 155 -1 86 -64 214 -155 315 l-49
54 29 24 c70 55 155 36 236 -55 60 -67 182 -268 211 -349 15 -39 22 -89 25
-157 2 -55 6 -110 8 -122 3 -11 32 -48 65 -81 33 -32 60 -66 60 -75 0 -9 -30
-31 -72 -54 -120 -65 -169 -149 -147 -254 15 -69 59 -175 101 -246 71 -119
231 -244 293 -229 15 4 32 21 44 44 21 42 134 314 146 352 5 14 9 108 10 210
1 157 5 196 23 260 43 146 27 208 -102 398 -93 137 -207 316 -284 446 -23 37
-51 98 -63 135 -37 112 -78 188 -120 225 -90 77 -242 136 -348 136 -77 0 -129
-21 -243 -97 -99 -67 -229 -139 -422 -235 l-161 -80 -7 79 c-14 160 -60 330
-109 410 -42 68 -136 178 -237 278 -98 96 -103 103 -138 195 -20 52 -77 190
-126 305 -102 239 -157 394 -163 463 -10 102 -12 161 -6 171 5 7 33 2 85 -15
44 -13 129 -30 190 -37 62 -8 118 -17 126 -22 8 -4 60 -36 115 -70 55 -34 143
-87 195 -118 52 -30 105 -65 117 -77 26 -24 55 -77 73 -135 26 -84 56 -122
123 -155 83 -41 176 -50 267 -25 36 10 97 21 137 26 92 9 159 44 195 102 25
40 78 181 78 209 0 7 11 40 25 73 51 123 34 187 -98 377 -36 51 -138 212 -227
358 -90 146 -171 277 -181 291 -40 57 -90 172 -104 240 -18 84 -35 116 -119
218 -33 41 -54 72 -46 68 142 -62 198 -79 255 -79 57 0 141 20 190 45 19 10
19 10 0 18 -11 4 -42 8 -70 9 -54 1 -126 28 -164 63 -41 38 -68 90 -111 213
-23 65 -57 144 -76 175 -42 69 -123 147 -198 189 -43 25 -56 37 -51 49 27 66
32 343 8 386 -9 15 -14 12 -43 -31 -77 -113 -236 -284 -264 -284 -3 0 -6 92
-6 205 0 113 -3 205 -8 205 -4 0 -32 -16 -62 -37z m-895 -258 c96 -26 216 -88
270 -138 l50 -47 -86 40 c-94 43 -230 80 -294 79 l-40 0 36 -19 c37 -20 119
-102 119 -120 0 -6 -15 0 -32 13 -107 80 -262 129 -493 153 -60 7 -60 7 -25
17 167 46 371 55 495 22z m-395 -245 c98 -20 292 -92 279 -104 -2 -2 -26 0
-54 5 -68 12 -409 24 -431 15 -14 -5 9 -15 76 -32 52 -14 122 -38 155 -54 58
-27 59 -28 26 -29 -18 -1 -108 6 -200 15 -270 26 -631 11 -791 -32 -41 -11
-20 2 90 57 189 93 373 151 550 173 55 7 240 -2 300 -14z m1514 -75 c117 -25
201 -88 255 -190 28 -54 71 -175 62 -175 -4 0 -29 30 -57 68 -114 156 -219
239 -369 293 l-50 18 45 0 c25 0 76 -6 114 -14z m-1729 -264 c28 -9 29 -9 5
-10 -54 -2 -317 -62 -415 -95 -110 -37 -280 -117 -305 -143 -13 -14 -13 -15 3
-10 25 9 373 21 366 13 -4 -4 -54 -13 -112 -21 -132 -17 -316 -61 -382 -90
-59 -26 -151 -88 -267 -180 -138 -109 -280 -174 -426 -195 -118 -18 -142 -10
-57 19 167 56 263 119 434 284 159 153 287 250 418 316 114 57 284 107 423
125 56 7 282 -2 315 -13z m-485 -495 c0 -1 -33 -25 -72 -51 -152 -101 -268
-194 -403 -325 -201 -195 -296 -269 -437 -345 -92 -50 -80 -51 72 -8 220 63
404 165 600 332 36 31 60 49 54 41 -162 -227 -283 -334 -488 -430 -126 -60
-186 -78 -420 -129 -252 -55 -349 -90 -456 -163 -59 -40 -64 -43 -55 -27 33
57 103 144 152 189 78 72 155 120 368 230 240 124 296 164 494 352 161 152
314 249 489 308 86 29 102 33 102 26z m-344 -724 c-19 -54 -73 -158 -114 -222
-107 -164 -181 -233 -432 -403 -205 -138 -335 -264 -422 -407 -32 -51 -58 -91
-58 -88 0 22 48 155 77 213 74 146 225 312 398 435 219 156 424 337 517 458
22 28 42 52 44 52 2 0 -3 -17 -10 -38z m-363 -795 c-119 -124 -201 -255 -260
-417 l-23 -65 5 85 c11 199 78 299 287 437 34 23 65 42 67 42 2 1 -32 -36 -76
-82z m237 -174 c-22 -103 -51 -165 -146 -304 -119 -176 -138 -214 -180 -367
-41 -150 -73 -250 -82 -256 -7 -4 -1 100 18 322 13 156 42 216 189 382 61 69
132 162 158 206 26 45 50 80 51 79 2 -2 -2 -30 -8 -62z m3080 -3238 c25 -72
51 -140 58 -153 7 -12 10 -27 6 -33 -10 -16 -153 -81 -163 -74 -15 9 -34 173
-26 233 8 71 24 133 38 150 25 31 42 6 87 -123z"/>
<path d="M15235 12455 c-56 -17 -211 -84 -265 -114 -269 -147 -521 -418 -666
-716 -61 -126 -129 -338 -156 -485 -20 -110 -23 -158 -23 -405 0 -249 3 -296
24 -422 13 -79 27 -141 31 -138 4 3 8 91 8 195 2 370 58 709 169 1005 37 101
167 357 227 450 148 226 397 456 659 608 66 39 64 45 -8 22z"/>
<path d="M11996 12108 c-69 -84 -223 -317 -276 -418 -140 -268 -229 -526 -277
-810 -26 -152 -26 -599 0 -755 41 -246 125 -516 227 -730 75 -158 212 -383
315 -520 107 -141 306 -349 463 -483 l125 -106 -23 -18 c-12 -10 -75 -52 -141
-93 -142 -90 -360 -200 -644 -325 -225 -99 -278 -126 -395 -203 -245 -161
-443 -369 -619 -652 -35 -55 -72 -110 -84 -122 -26 -29 -56 -29 -212 -2 -157
26 -376 35 -486 20 -256 -38 -479 -163 -646 -364 -87 -105 -112 -143 -169
-257 -112 -227 -162 -512 -135 -782 6 -65 29 -224 51 -354 51 -301 54 -442 14
-580 -14 -49 -38 -112 -55 -140 -34 -60 -109 -134 -167 -163 -64 -33 -63 -44
4 -36 33 4 75 11 94 17 144 44 270 167 325 321 25 69 23 73 46 -75 16 -109 7
-368 -16 -432 -46 -126 -147 -246 -252 -298 -111 -54 -254 -51 -377 7 -64 31
-147 98 -187 153 -17 24 -33 41 -36 39 -8 -9 30 -122 63 -191 119 -240 315
-382 558 -403 232 -19 485 97 634 292 22 29 23 29 17 5 -4 -14 -22 -59 -42
-100 -63 -132 -257 -302 -389 -341 -24 -7 -44 -17 -44 -21 0 -26 222 3 346 46
323 109 551 397 620 780 56 312 9 613 -157 1005 -27 63 -47 116 -45 118 5 6
142 -132 186 -188 76 -97 111 -181 140 -337 l17 -97 11 40 c6 22 16 82 23 134
16 139 2 213 -96 506 -92 272 -115 378 -115 521 0 145 34 266 108 384 35 56
117 147 162 180 l25 18 1 -192 c2 -348 54 -546 242 -921 105 -212 113 -233
113 -321 0 -165 -96 -336 -314 -557 -200 -202 -211 -271 -97 -597 145 -412
220 -780 220 -1088 0 -138 1 -144 30 -202 34 -67 70 -98 155 -132 75 -30 84
-47 72 -133 -6 -42 -6 -79 1 -104 l9 -39 -81 -6 c-44 -4 -249 -15 -455 -27
-642 -34 -844 -55 -720 -73 56 -8 345 -24 664 -36 220 -8 451 -15 1240 -35
845 -21 2573 -25 2820 -6 241 19 412 50 652 118 326 92 680 276 958 498 537
428 858 1053 854 1660 -1 160 0 161 -35 -25 -20 -104 -88 -313 -142 -438 -164
-379 -506 -780 -879 -1030 -349 -234 -746 -397 -1137 -468 -179 -32 -376 -45
-776 -51 l-406 -6 -43 84 c-78 150 -138 227 -226 291 -44 31 -92 66 -107 78
-14 11 -49 66 -77 123 -35 73 -72 129 -123 188 -296 340 -479 662 -478 838 1
50 38 156 80 225 34 57 153 197 276 326 191 200 399 490 514 715 85 165 120
327 120 550 0 310 43 380 280 466 254 92 472 184 643 271 246 125 420 243 785
531 8 7 18 5 30 -5 9 -8 73 -45 142 -83 272 -150 596 -357 810 -518 552 -416
867 -813 1029 -1292 78 -231 101 -361 108 -600 11 -377 -47 -651 -207 -982
-201 -418 -515 -759 -968 -1054 -104 -68 -331 -188 -434 -229 -32 -13 -56 -25
-54 -28 3 -2 53 8 113 23 438 110 977 363 1321 622 302 226 580 512 756 778
286 430 432 858 468 1366 39 554 -126 1186 -428 1634 -156 233 -349 467 -472
573 l-59 51 -50 -62 c-72 -91 -71 -83 -21 -135 183 -193 379 -473 494 -707
140 -287 219 -546 264 -870 15 -107 20 -407 9 -525 -35 -359 -164 -764 -340
-1070 -65 -111 -161 -261 -166 -256 -2 1 10 32 26 67 79 174 145 452 163 682
27 356 -24 684 -158 1022 -133 334 -307 594 -594 889 -420 431 -918 782 -1670
1176 -107 56 -199 106 -205 110 -5 4 -75 40 -155 80 -372 187 -1034 555 -1490
828 -152 92 -426 274 -535 355 -181 137 -421 364 -579 550 -315 371 -532 880
-585 1369 -14 123 -14 365 -1 499 31 317 140 674 305 998 37 73 66 134 64 135
-2 2 -26 -23 -53 -56z m920 -4064 c294 -196 648 -405 1234 -729 107 -59 240
-133 295 -165 55 -31 124 -70 153 -85 33 -18 52 -34 50 -44 -4 -20 -123 -120
-228 -191 -316 -213 -645 -327 -1036 -360 -248 -21 -523 15 -720 93 -87 36
-93 33 -36 -17 118 -104 291 -182 482 -217 36 -6 131 -12 212 -13 80 0 145 -2
144 -3 -1 -2 -83 -26 -182 -54 -98 -29 -221 -69 -271 -89 -171 -69 -343 -190
-388 -274 -11 -20 -22 -36 -25 -36 -4 0 -12 48 -19 108 -16 130 -39 223 -124
497 -76 243 -96 338 -104 488 -7 121 -13 122 -45 3 -13 -47 -21 -119 -25 -211
-5 -149 3 -222 63 -550 35 -191 40 -464 11 -608 -77 -382 -308 -695 -897
-1216 -202 -179 -349 -330 -401 -415 -100 -163 -145 -334 -136 -516 11 -210
91 -597 154 -745 19 -44 40 -106 48 -137 15 -65 36 -99 113 -180 48 -50 52
-58 36 -64 -11 -3 -55 -21 -100 -40 -45 -19 -84 -34 -87 -34 -3 0 -13 21 -21
47 -27 82 -49 107 -126 147 -96 51 -109 78 -115 248 -6 134 -27 314 -52 421
-17 77 -12 103 6 31 22 -86 110 -375 120 -392 8 -14 10 -10 11 20 0 68 -21
192 -61 353 -49 200 -70 262 -132 400 -73 163 -101 238 -136 363 -46 161 -50
152 164 387 70 77 148 171 173 209 78 120 141 303 142 411 0 75 -30 159 -139
385 -171 353 -209 480 -218 730 -6 179 4 276 49 453 77 307 232 570 480 814
196 193 303 258 718 435 91 38 230 101 310 139 141 68 354 201 435 273 22 19
45 35 51 36 6 0 82 -48 170 -106z m-2560 -1356 c91 -11 128 -28 62 -28 -71 0
-289 -42 -395 -76 -299 -95 -513 -302 -619 -599 -30 -86 -58 -182 -49 -173 2
2 20 34 40 72 132 250 326 426 585 533 60 25 208 64 239 63 3 0 -21 -15 -54
-33 -105 -57 -180 -113 -251 -190 -80 -86 -132 -169 -175 -282 -44 -114 -59
-194 -58 -325 0 -198 26 -302 169 -670 98 -254 143 -399 165 -535 26 -161 16
-362 -25 -505 -10 -36 -24 -85 -30 -109 -19 -73 -21 -39 -4 60 19 111 14 330
-11 444 -26 122 -84 292 -161 474 -41 97 -93 228 -116 291 -53 153 -60 161
-53 70 8 -95 28 -217 61 -362 58 -265 73 -507 40 -655 -68 -310 -278 -545
-524 -589 -120 -21 -124 -16 -27 30 219 104 348 305 395 615 18 121 8 311 -35
616 -73 518 -57 783 61 1078 25 61 43 112 41 113 -10 10 -124 -161 -166 -251
-95 -197 -141 -424 -141 -694 0 -46 -2 -82 -4 -80 -10 9 -65 358 -77 479 -38
400 66 739 302 980 113 115 275 206 418 235 84 17 275 18 397 3z m-341 -643
c-45 -101 -59 -178 -58 -325 0 -136 23 -280 59 -370 l14 -35 -21 25 c-35 42
-79 138 -100 218 -32 127 -19 292 31 393 26 52 93 159 97 155 2 -2 -8 -29 -22
-61z m2010 -1542 c-34 -104 -105 -224 -226 -384 -118 -155 -133 -185 -133
-270 0 -80 18 -115 136 -256 110 -132 365 -474 451 -603 82 -124 141 -239 212
-411 74 -181 94 -201 226 -228 93 -19 94 -21 94 -159 l0 -120 -150 -6 c-213
-9 -785 -26 -880 -25 l-80 0 -59 121 c-55 113 -66 129 -177 243 -114 118 -118
125 -139 196 -12 41 -39 121 -61 178 -71 181 -117 413 -126 628 -7 161 7 234
73 370 55 115 139 205 409 443 105 92 249 224 320 293 120 115 130 123 133 99
2 -14 -8 -63 -23 -109z m-609 -2317 c5 -4 94 -187 94 -192 0 -18 -387 30 -408
50 -2 3 -2 17 2 30 14 55 274 148 312 112z"/>
<path d="M10930 6476 c-46 -103 -65 -213 -65 -381 0 -147 2 -168 29 -260 35
-121 118 -287 186 -372 65 -81 167 -165 254 -209 98 -49 122 -45 50 9 -106 79
-195 189 -268 334 -115 229 -160 443 -160 756 1 92 -1 167 -3 167 -2 0 -13
-20 -23 -44z"/>
<path d="M11011 4429 c-18 -22 -92 -102 -164 -177 -74 -78 -145 -162 -162
-192 -26 -48 -30 -65 -30 -135 0 -62 6 -92 24 -132 40 -90 51 -88 51 9 0 135
27 197 170 393 49 67 156 263 147 271 -2 2 -18 -14 -36 -37z"/>
<path d="M15967 12053 c31 -43 80 -100 108 -128 27 -27 63 -67 79 -89 37 -50
79 -66 171 -66 l75 0 66 -102 c37 -57 87 -128 113 -158 90 -109 322 -370 327
-370 16 0 -82 149 -261 396 -110 152 -139 199 -174 287 -63 157 -99 182 -247
171 -103 -8 -125 -3 -177 45 -46 42 -115 91 -128 91 -5 0 17 -35 48 -77z"/>
<path d="M17067 10909 c-26 -15 -57 -83 -57 -126 1 -97 99 -219 138 -170 17
21 24 90 13 137 -11 49 0 83 24 74 19 -8 19 9 0 46 -24 47 -75 64 -118 39z"/>
<path d="M14640 9430 c0 -5 11 -10 25 -10 14 0 78 -11 142 -25 381 -80 624
-236 741 -475 35 -71 37 -73 40 -43 10 99 -54 255 -141 346 -102 106 -234 170
-415 202 -91 17 -392 20 -392 5z"/>
<path d="M16576 8503 c-33 -13 -170 -82 -305 -153 -255 -133 -416 -202 -560
-241 -77 -21 -82 -24 -55 -32 89 -26 320 24 489 107 99 48 381 226 494 312 38
30 41 34 20 33 -13 0 -51 -12 -83 -26z"/>
</g>
</svg>
