<svg width="102" height="98" viewBox="0 0 102 98" fill="none" xmlns="http://www.w3.org/2000/svg">
<path fill-rule="evenodd" clip-rule="evenodd" d="M50.5004 23.1292C43.6017 23.1292 38.2253 27.9954 38.2253 34.4312C38.2253 37.7414 39.6823 40.9059 42.2464 43.2001C34.3181 46.487 34.8309 47.7108 35.6612 55.7862H43.3453C39.9672 71.768 24.9896 68.0984 25.3112 85.8382H75.6876C76.0132 68.0984 61.0336 71.7699 57.6555 55.7862H65.3396C66.1699 47.7108 66.6827 46.487 58.7523 43.1982C60.0156 42.0775 61.0244 40.7211 61.7161 39.2131C62.4078 37.705 62.7677 36.0775 62.7735 34.4312C62.7735 27.9954 57.4011 23.1292 50.5004 23.1292Z" fill="#CCCCCC" stroke="#1E1E1E" stroke-width="5.66929" stroke-linejoin="round"/>
<path opacity="0.25" fill-rule="evenodd" clip-rule="evenodd" d="M50.873 23.2334C49.6642 23.2334 48.5042 23.3907 47.4094 23.6724C63.7749 26.1201 61.107 41.0548 52.2018 43.3043C55.9381 44.5942 59.7313 46.4241 61.0378 48.0695C62.2181 49.5595 61.3268 52.9921 61.3268 52.9921L35.7773 53.3884L36.0378 55.3698L47.6251 55.4106C51.107 71.1418 76.3715 68.2862 76.05 85.9444C76.3715 68.2862 61.5649 71.0991 58.083 55.3679H65.7183C66.3471 45.6937 67.792 48.3667 59.129 43.3043C60.3914 42.183 61.3996 40.8265 62.0913 39.3186C62.7829 37.8107 63.1433 36.1835 63.1501 34.5374C63.1501 28.0996 57.7716 23.2314 50.873 23.2314V23.2334Z" fill="#896851"/>
<path opacity="0.25" fill-rule="evenodd" clip-rule="evenodd" d="M48.3068 24.8168C47.6943 24.6109 39.5991 27.2334 40.1953 35.1067C40.4395 38.3276 42.6719 41.2764 43.0036 41.2085L44.0069 42.2944C44.0069 42.2944 42.0818 38.4189 42.0818 35.1067C42.0818 28.974 48.317 24.811 48.317 24.811L48.3068 24.8168ZM45.1098 56.8483C41.105 72.5135 28.3598 69.417 27.3036 84.3031V84.272C30.8852 72.0492 42.3504 73.5761 45.8953 56.9532L45.1098 56.8483Z" fill="white"/>
<path opacity="0.25" fill-rule="evenodd" clip-rule="evenodd" d="M45.291 43.6327C42.4481 44.9382 37.5315 46.2941 37.269 49.0487L40.8526 48.2639C41.1457 47.6423 42.1571 45.5326 45.35 43.6172L45.291 43.6327Z" fill="white"/>
</svg>
