<svg width="565" height="99" viewBox="0 0 565 99" fill="none" xmlns="http://www.w3.org/2000/svg"><path d="M80 4L83 16H97L100 4L94 11L90 4L86 11L80 4Z" fill="#4A3B2C" stroke="#4A3B2C" stroke-width="2" stroke-linecap="round" stroke-linejoin="round"/>
<path d="M81 21H99" stroke="#4A3B2C" stroke-width="2" stroke-linecap="round" stroke-linejoin="round"/>
<path d="M66.1463 68.4754V85.6066C64.5835 87.6831 62.4772 89.7596 59.8272 91.8361C57.1773 93.9126 53.9159 95.643 50.0429 97.0273C46.2379 98.3424 41.7534 99 36.5894 99C29.387 98.9308 23.034 97.3388 17.5303 94.224C12.0266 91.0401 7.71197 86.6448 4.58641 81.0382C1.5288 75.3625 0 68.7523 0 61.2077C0 53.663 1.5288 47.0528 4.58641 41.3771C7.71197 35.7013 12.0266 31.306 17.5303 28.1913C23.034 25.0073 29.387 23.4153 36.5894 23.4153C40.3265 23.4153 43.6898 23.7268 46.6795 24.3497C49.6692 24.9727 52.3531 25.8379 54.7312 26.9454C57.1773 27.9836 59.3856 29.1603 61.356 30.4754L63.3944 45.1148H62.4772C61.458 41.1002 59.7593 37.7432 57.3811 35.0437C55.071 32.275 52.1492 30.1639 48.616 28.7104C45.0828 27.2568 41.0739 26.5301 36.5894 26.5301C30.8819 26.5301 25.8538 27.9836 21.5052 30.8907C17.1566 33.7978 13.7592 37.847 11.3132 43.0383C8.86707 48.2295 7.64402 54.286 7.64402 61.2077C7.64402 68.1293 8.86707 74.1858 11.3132 79.3771C13.7592 84.5683 17.1566 88.6175 21.5052 91.5246C25.8538 94.3625 30.8819 95.816 36.5894 95.8852C39.5791 95.8852 42.4328 95.5392 45.1507 94.847C47.9365 94.0856 50.5525 93.0474 52.9986 91.7322C55.4447 90.3479 57.619 88.7213 59.5215 86.8525L59.6234 68.4754C59.6234 65.3607 57.8907 63.8033 54.4255 63.8033H52.7947V62.765H72.7711V63.8033H71.2423C67.7091 63.8033 66.0104 65.3607 66.1463 68.4754Z" fill="#4A3B2C"/>
<path d="M93.2022 24.8689V97.5464H86.5773V24.8689H93.2022ZM86.8831 89.9672V97.5464H78.7295V96.5082C78.7295 96.5082 78.9333 96.5082 79.341 96.5082C79.8166 96.5082 80.0544 96.5082 80.0544 96.5082C81.8211 96.5082 83.3159 95.8852 84.5389 94.6393C85.8299 93.3242 86.5094 91.7669 86.5773 89.9672H86.8831ZM86.8831 32.4481H86.5773C86.5094 30.6485 85.8299 29.1257 84.5389 27.8798C83.3159 26.5647 81.8211 25.9071 80.0544 25.9071C80.0544 25.9071 79.8166 25.9071 79.341 25.9071C78.9333 25.9071 78.7295 25.9071 78.7295 25.9071V24.8689H86.8831V32.4481ZM92.8964 89.9672H93.2022C93.2701 91.7669 93.9156 93.3242 95.1386 94.6393C96.4296 95.8852 97.9584 96.5082 99.7251 96.5082C99.7251 96.5082 99.9289 96.5082 100.337 96.5082C100.744 96.5082 100.982 96.5082 101.05 96.5082V97.5464H92.8964V89.9672ZM92.8964 32.4481V24.8689H101.05V25.9071C100.982 25.9071 100.744 25.9071 100.337 25.9071C99.9289 25.9071 99.7251 25.9071 99.7251 25.9071C97.9584 25.9071 96.4296 26.5647 95.1386 27.8798C93.9156 29.1257 93.2701 30.6485 93.2022 32.4481H92.8964Z" fill="#4A3B2C"/>
<path d="M177.323 68.4754V85.6066C175.76 87.6831 173.654 89.7596 171.004 91.8361C168.354 93.9126 165.093 95.643 161.22 97.0273C157.415 98.3424 152.93 99 147.766 99C140.564 98.9308 134.211 97.3388 128.707 94.224C123.203 91.0401 118.889 86.6448 115.763 81.0382C112.706 75.3625 111.177 68.7523 111.177 61.2077C111.177 53.663 112.706 47.0528 115.763 41.3771C118.889 35.7013 123.203 31.306 128.707 28.1913C134.211 25.0073 140.564 23.4153 147.766 23.4153C151.503 23.4153 154.867 23.7268 157.856 24.3497C160.846 24.9727 163.53 25.8379 165.908 26.9454C168.354 27.9836 170.562 29.1603 172.533 30.4754L174.571 45.1148H173.654C172.635 41.1002 170.936 37.7432 168.558 35.0437C166.248 32.275 163.326 30.1639 159.793 28.7104C156.26 27.2568 152.251 26.5301 147.766 26.5301C142.059 26.5301 137.031 27.9836 132.682 30.8907C128.333 33.7978 124.936 37.847 122.49 43.0383C120.044 48.2295 118.821 54.286 118.821 61.2077C118.821 68.1293 120.044 74.1858 122.49 79.3771C124.936 84.5683 128.333 88.6175 132.682 91.5246C137.031 94.3625 142.059 95.816 147.766 95.8852C150.756 95.8852 153.61 95.5392 156.327 94.847C159.113 94.0856 161.729 93.0474 164.175 91.7322C166.621 90.3479 168.796 88.7213 170.698 86.8525L170.8 68.4754C170.8 65.3607 169.068 63.8033 165.602 63.8033H163.971V62.765H183.948V63.8033H182.419C178.886 63.8033 177.187 65.3607 177.323 68.4754Z" fill="#4A3B2C"/>
<path d="M222.471 23.4153L252.639 96.9235H243.976L220.432 33.2787L222.471 23.4153ZM200.558 89.9672C200.082 91.3516 200.014 92.5282 200.354 93.4973C200.694 94.4663 201.237 95.2277 201.985 95.7814C202.8 96.2659 203.615 96.5082 204.431 96.5082H205.348V97.5464H184.862V96.5082C184.862 96.5082 185.032 96.5082 185.372 96.5082C185.643 96.5082 185.779 96.5082 185.779 96.5082C187.342 96.5082 188.939 96.0237 190.57 95.0546C192.268 94.0164 193.661 92.3206 194.748 89.9672H200.558ZM222.471 23.4153L223.388 30.6831L197.806 97.235H191.691L217.782 34.1093C217.782 34.1093 217.952 33.694 218.292 32.8634C218.7 31.9636 219.141 30.8907 219.617 29.6448C220.16 28.3989 220.602 27.1876 220.942 26.0109C221.349 24.8342 221.553 23.969 221.553 23.4153H222.471ZM236.841 69.2022V72.3169H204.94V69.2022H236.841ZM241.428 89.9672H249.785C250.804 92.3206 252.163 94.0164 253.862 95.0546C255.561 96.0237 257.191 96.5082 258.754 96.5082C258.754 96.5082 258.89 96.5082 259.162 96.5082C259.434 96.5082 259.57 96.5082 259.57 96.5082V97.5464H236.637V96.5082H237.555C238.846 96.5082 240.001 95.9545 241.02 94.847C242.039 93.6703 242.175 92.0437 241.428 89.9672Z" fill="#4A3B2C"/>
<path d="M327.22 67.2295L325.997 83.5301C324.23 86.5064 321.988 89.1712 319.27 91.5246C316.62 93.8087 313.461 95.643 309.792 97.0273C306.19 98.3424 302.046 99 297.357 99C290.291 98.9308 284.006 97.3388 278.502 94.224C272.998 91.1093 268.684 86.7486 265.558 81.1421C262.501 75.4663 260.972 68.7869 260.972 61.1038C260.972 53.5592 262.501 46.9836 265.558 41.3771C268.616 35.7013 272.896 31.306 278.4 28.1913C283.972 25.0073 290.495 23.4153 297.969 23.4153C302.997 23.4153 307.515 24.1075 311.524 25.4918C315.601 26.8069 319.134 28.4681 322.124 30.4754L324.162 45.1148H323.245C321.75 39.0237 318.693 34.4208 314.072 31.306C309.452 28.122 304.084 26.5301 297.969 26.5301C291.99 26.5301 286.792 27.9836 282.375 30.8907C278.026 33.7286 274.629 37.7432 272.183 42.9344C269.805 48.0565 268.616 54.0783 268.616 61C268.616 67.9217 269.805 73.9781 272.183 79.1694C274.629 84.3607 277.992 88.4098 282.273 91.3169C286.622 94.224 291.65 95.7468 297.357 95.8852C302.182 95.8852 306.632 94.9854 310.709 93.1858C314.854 91.3169 318.319 88.306 321.105 84.153C323.891 79.9308 325.657 74.2896 326.405 67.2295H327.22Z" fill="#4A3B2C"/>
<path d="M401.19 24.8689V97.5464H394.565V24.8689H401.19ZM352.88 24.8689V97.5464H346.255V24.8689H352.88ZM395.483 60.0656V63.1803H351.861V60.0656H395.483ZM346.561 89.9672V97.5464H338.407V96.5082C338.407 96.5082 338.611 96.5082 339.019 96.5082C339.494 96.5082 339.732 96.5082 339.732 96.5082C341.499 96.5082 342.994 95.8852 344.217 94.6393C345.508 93.3242 346.187 91.7669 346.255 89.9672H346.561ZM346.561 32.4481H346.255C346.187 30.6485 345.508 29.1257 344.217 27.8798C342.994 26.5647 341.499 25.9071 339.732 25.9071C339.732 25.9071 339.494 25.9071 339.019 25.9071C338.611 25.9071 338.407 25.9071 338.407 25.9071V24.8689H346.561V32.4481ZM352.574 89.9672H352.88C352.948 91.7669 353.593 93.3242 354.816 94.6393C356.107 95.8852 357.636 96.5082 359.403 96.5082C359.403 96.5082 359.607 96.5082 360.014 96.5082C360.422 96.5082 360.66 96.5082 360.728 96.5082V97.5464H352.574V89.9672ZM352.574 32.4481V24.8689H360.728V25.9071C360.66 25.9071 360.422 25.9071 360.014 25.9071C359.607 25.9071 359.403 25.9071 359.403 25.9071C357.636 25.9071 356.107 26.5647 354.816 27.8798C353.593 29.1257 352.948 30.6485 352.88 32.4481H352.574ZM394.871 89.9672V97.5464H386.718V96.5082C386.785 96.5082 387.023 96.5082 387.431 96.5082C387.839 96.5082 388.043 96.5082 388.043 96.5082C389.809 96.5082 391.338 95.8852 392.629 94.6393C393.92 93.3242 394.565 91.7669 394.565 89.9672H394.871ZM394.871 32.4481H394.565C394.565 30.6485 393.92 29.1257 392.629 27.8798C391.338 26.5647 389.809 25.9071 388.043 25.9071C388.043 25.9071 387.839 25.9071 387.431 25.9071C387.023 25.9071 386.785 25.9071 386.718 25.9071V24.8689H394.871V32.4481ZM400.884 89.9672H401.19C401.258 91.7669 401.904 93.3242 403.127 94.6393C404.418 95.8852 405.947 96.5082 407.713 96.5082C407.713 96.5082 407.917 96.5082 408.325 96.5082C408.8 96.5082 409.038 96.5082 409.038 96.5082V97.5464H400.884V89.9672ZM400.884 32.4481V24.8689H409.038V25.9071C409.038 25.9071 408.8 25.9071 408.325 25.9071C407.917 25.9071 407.713 25.9071 407.713 25.9071C405.947 25.9071 404.418 26.5647 403.127 27.8798C401.904 29.1257 401.258 30.6485 401.19 32.4481H400.884Z" fill="#4A3B2C"/>
<path d="M435.79 24.8689V97.5464H429.165V24.8689H435.79ZM463.308 94.3279V97.5464H435.484V94.3279H463.308ZM458.926 60.1694V63.2842H435.484V60.1694H458.926ZM463.308 24.8689V28.0874H435.484V24.8689H463.308ZM469.525 80.7268L463.614 97.5464H446.695L450.364 94.3279C453.966 94.3279 456.887 93.7741 459.13 92.6667C461.44 91.49 463.308 89.8634 464.735 87.7869C466.162 85.7104 467.419 83.357 468.506 80.7268H469.525ZM458.926 63.0765V69.929H457.906V68.3716C457.906 66.9873 457.431 65.8106 456.48 64.8415C455.528 63.8033 454.373 63.2842 453.014 63.2842V63.0765H458.926ZM458.926 53.5246V60.3771H453.014V60.1694C454.373 60.1002 455.528 59.5811 456.48 58.612C457.431 57.5738 457.906 56.3625 457.906 54.9781V53.5246H458.926ZM463.308 27.776V36.082H462.289V34.2131C462.289 32.5519 461.711 31.133 460.556 29.9563C459.401 28.7104 457.974 28.0528 456.276 27.9836V27.776H463.308ZM463.308 23V26.0109L450.874 24.8689C452.369 24.8689 453.932 24.765 455.562 24.5574C457.261 24.3497 458.824 24.1075 460.251 23.8306C461.678 23.5537 462.697 23.2769 463.308 23ZM429.471 89.9672V97.5464H421.317V96.5082C421.317 96.5082 421.521 96.5082 421.929 96.5082C422.404 96.5082 422.642 96.5082 422.642 96.5082C424.409 96.5082 425.904 95.8852 427.127 94.6393C428.418 93.3242 429.097 91.7669 429.165 89.9672H429.471ZM429.471 32.4481H429.165C429.165 30.6485 428.519 29.1257 427.228 27.8798C425.938 26.5647 424.409 25.9071 422.642 25.9071C422.642 25.9071 422.438 25.9071 422.031 25.9071C421.623 25.9071 421.419 25.9071 421.419 25.9071L421.317 24.8689H429.471V32.4481Z" fill="#4A3B2C"/>
<path d="M499.607 23.4153C500.694 23.4153 501.849 23.4845 503.072 23.623C504.363 23.7614 505.586 23.969 506.741 24.2459C507.965 24.4536 509.052 24.6958 510.003 24.9727C511.022 25.1803 511.803 25.4226 512.347 25.6995V37.224H511.43C511.43 33.9016 510.309 31.306 508.066 29.4372C505.824 27.4991 503.106 26.5301 499.913 26.5301C496.176 26.5301 493.152 27.7414 490.842 30.1639C488.532 32.5173 487.377 35.286 487.377 38.47C487.377 39.7851 487.648 41.3424 488.192 43.1421C488.803 44.8725 489.891 46.4991 491.453 48.0219L511.532 66.918C513.57 68.8561 514.929 70.9326 515.609 73.1475C516.288 75.3625 516.628 77.5082 516.628 79.5847C516.628 85.3297 514.895 90.0018 511.43 93.6011C508.032 97.2004 503.412 99 497.569 99C495.938 99 494.001 98.827 491.759 98.4809C489.585 98.1348 487.445 97.5464 485.338 96.7158C483.3 95.816 481.601 94.674 480.242 93.2896C480.038 92.1821 479.936 90.7978 479.936 89.1366C479.936 87.4754 480.072 85.745 480.344 83.9454C480.616 82.0765 480.99 80.3807 481.465 78.8579H482.382C482.043 82.388 482.484 85.4681 483.707 88.0984C484.931 90.7286 486.697 92.7359 489.007 94.1202C491.385 95.4353 494.069 96.0237 497.059 95.8852C500.796 95.6776 503.99 94.3625 506.64 91.9399C509.357 89.4481 510.716 86.1257 510.716 81.9727C510.716 79.9654 510.377 78.1658 509.697 76.5738C509.018 74.9126 508.032 73.4936 506.741 72.3169L487.173 53.8361C485.134 51.898 483.707 49.7869 482.892 47.5027C482.077 45.1494 481.669 42.969 481.669 40.9618C481.669 38.0546 482.349 35.2514 483.707 32.5519C485.066 29.8525 487.071 27.6721 489.721 26.0109C492.439 24.2805 495.734 23.4153 499.607 23.4153ZM512.347 24.4536V26.6339H504.601V24.4536H512.347Z" fill="#4A3B2C"/>
<path d="M547.979 23.4153C549.067 23.4153 550.222 23.4845 551.445 23.623C552.736 23.7614 553.959 23.969 555.114 24.2459C556.337 24.4536 557.424 24.6958 558.375 24.9727C559.394 25.1803 560.176 25.4226 560.719 25.6995V37.224H559.802C559.802 33.9016 558.681 31.306 556.439 29.4372C554.197 27.4991 551.479 26.5301 548.285 26.5301C544.548 26.5301 541.524 27.7414 539.214 30.1639C536.904 32.5173 535.749 35.286 535.749 38.47C535.749 39.7851 536.021 41.3424 536.564 43.1421C537.176 44.8725 538.263 46.4991 539.826 48.0219L559.904 66.918C561.942 68.8561 563.301 70.9326 563.981 73.1475C564.66 75.3625 565 77.5082 565 79.5847C565 85.3297 563.267 90.0018 559.802 93.6011C556.405 97.2004 551.784 99 545.941 99C544.31 99 542.374 98.827 540.132 98.4809C537.957 98.1348 535.817 97.5464 533.711 96.7158C531.672 95.816 529.974 94.674 528.615 93.2896C528.411 92.1821 528.309 90.7978 528.309 89.1366C528.309 87.4754 528.445 85.745 528.716 83.9454C528.988 82.0765 529.362 80.3807 529.838 78.8579H530.755C530.415 82.388 530.857 85.4681 532.08 88.0984C533.303 90.7286 535.069 92.7359 537.38 94.1202C539.758 95.4353 542.442 96.0237 545.431 95.8852C549.168 95.6776 552.362 94.3625 555.012 91.9399C557.73 89.4481 559.089 86.1257 559.089 81.9727C559.089 79.9654 558.749 78.1658 558.07 76.5738C557.39 74.9126 556.405 73.4936 555.114 72.3169L535.545 53.8361C533.507 51.898 532.08 49.7869 531.264 47.5027C530.449 45.1494 530.041 42.969 530.041 40.9618C530.041 38.0546 530.721 35.2514 532.08 32.5519C533.439 29.8525 535.443 27.6721 538.093 26.0109C540.811 24.2805 544.106 23.4153 547.979 23.4153ZM560.719 24.4536V26.6339H552.973V24.4536H560.719Z" fill="#4A3B2C"/>
</svg>
